<svg width="100" height="47" viewBox="0 0 100 47" fill="none" xmlns="http://www.w3.org/2000/svg">
    <g clip-path="url(#clip0_2362_370)">
        <path d="M14.4792 0.256592H6.24969V6.08968H14.4792V45.8789H20.3123V0.256592H14.4792Z" fill="black" fill-opacity="0.3"/>
        <path d="M20.3123 0.105103H6.09821V6.2416H14.3273V46.0308H20.4638V0.105103H20.3123ZM20.1604 45.727H14.6307V5.93819H6.40162V0.408514H20.1604V45.727Z" fill="black" fill-opacity="0.3"/>
        <path d="M5.83396 9.6311H0V15.4642H5.83396V45.8789H11.667V9.6311H5.83396Z" fill="black" fill-opacity="0.3"/>
        <path d="M47.7484 9.48755C45.1273 9.48755 35.2931 11.8299 35.2931 22.651C35.2931 28.9574 39.3418 32.7164 42.4891 34.381C44.4082 35.3427 46.7245 35.2934 46.7245 35.2934H99.8071V28.9649H47.2072C46.4106 28.9649 45.3136 28.7782 44.609 28.2898C43.2835 27.373 41.6194 25.6595 41.6194 22.651C41.6194 16.496 47.4912 15.8473 47.7893 15.8187C48.6075 15.8231 51.0639 15.9724 52.6801 17.5868C53.8589 18.7643 54.4569 20.6081 54.4569 23.0675H60.785C60.785 18.8678 59.563 15.5175 57.1528 13.1096C53.8765 9.835 49.8635 9.48755 47.7484 9.48755V9.48755Z" fill="black" fill-opacity="0.3"/>
        <path d="M47.2072 28.8135C46.4802 28.8135 45.3867 28.6435 44.6971 28.1652C43.3632 27.2405 41.7731 25.5367 41.7731 22.651C41.7731 16.618 47.5595 15.9935 47.8061 15.9698C48.7154 15.9755 51.0327 16.1529 52.5753 17.6942C53.7246 18.8423 54.3072 20.6504 54.3072 23.0667V23.2182H60.9378V23.0667C60.9378 18.8255 59.7008 15.4391 57.2612 13.0017C54.8216 10.5643 51.6245 9.33521 47.7493 9.33521C46.4934 9.33521 43.3527 9.86805 40.452 11.8858C38.0287 13.5724 35.1412 16.8069 35.1412 22.651C35.1412 30.0883 40.7114 33.6121 42.4182 34.5153C44.3514 35.4841 46.6316 35.4471 46.7281 35.4449H99.959V28.8135H47.2072ZM99.6547 35.1415H46.7228C46.6968 35.1415 44.417 35.1781 42.5556 34.2454C40.8893 33.3646 35.4428 29.9188 35.4428 22.651C35.4428 16.9381 38.2612 13.7794 40.6228 12.1359C43.2558 10.304 46.3256 9.63906 47.7466 9.63906C51.5404 9.63906 54.6688 10.843 57.045 13.217C59.3961 15.5659 60.5974 18.8308 60.6273 22.9156H54.6053C54.5802 20.4936 53.9721 18.6613 52.7888 17.4793C51.1665 15.8588 48.7538 15.6738 47.7916 15.6672C47.5185 15.6928 41.4692 16.3454 41.4692 22.651C41.4692 25.6684 43.1307 27.451 44.524 28.4145C45.2727 28.9324 46.4 29.1191 47.2076 29.1191H99.6547V35.1415Z" fill="black" fill-opacity="0.3"/>
        <path d="M45.2146 38.6521C43.3928 38.409 31.9129 36.3076 31.9129 22.13C31.9129 6.5182 47.9312 6.27027 48.8515 6.27027C49.9058 6.27027 63.8306 6.80179 64.0116 23.0667H70.3396C70.1635 4.26309 54.3984 0.00915527 48.8498 0.00915527C42.3795 0.00915527 25.5853 3.98301 25.5853 22.13C25.5853 38.5464 38.0595 44.243 44.6557 44.9612L44.824 44.9797L99.989 45.0678L100 38.7393L45.2146 38.6521Z" fill="black" fill-opacity="0.3"/>
    </g>
    <defs>
        <clipPath id="clip0_2362_370">
            <rect width="100" height="46.04" fill="white"/>
        </clipPath>
    </defs>
</svg>
