<svg width="200" height="50" viewBox="0 0 200 50" fill="none" xmlns="http://www.w3.org/2000/svg">
    <path d="M34.2192 13V20.5769L40.3851 13H34.2192ZM20.9426 16.6049C21.3727 15.9136 21.8347 15.3682 22.4744 14.8557L22.9601 14.5259C23.4192 14.2762 23.8347 14.1101 24.3481 13.9824C24.659 13.9268 24.9456 13.8964 25.2659 13.8859C25.6941 13.9002 26.0607 13.9539 26.4768 14.0566C26.7687 14.1498 27.0329 14.2544 27.31 14.3858C27.9395 14.7331 28.4182 15.1239 28.9001 15.6529L29.2622 16.1101C29.7933 16.8876 30.1368 17.658 30.3903 18.5578L30.5273 19.1696C30.5453 19.2672 30.5604 19.3642 30.5725 19.4575V13H20V19.4749C20.1312 18.7608 20.3414 17.823 20.6636 17.1282L20.9426 16.6049ZM44.7925 14.0473L34.2192 27.0415V29.9897C34.2316 29.8946 34.2477 29.7989 34.2639 29.7024L34.4004 29.0917C34.6547 28.1913 34.9987 27.4202 35.529 26.6423L35.8911 26.1832C36.3036 25.7349 36.7047 25.3877 37.2229 25.0622C37.4895 24.9133 37.7486 24.7918 38.0276 24.6786C38.6504 24.4827 39.1828 24.4069 39.84 24.4265L40.4485 24.5152C40.9576 24.6426 41.3734 24.8087 41.8303 25.0619C42.084 25.2183 42.3128 25.3842 42.545 25.5696C43.2325 26.1867 43.7112 26.8431 44.1303 27.6607L44.3697 28.2117C44.563 28.7318 44.7014 29.4965 44.7928 30.0112C44.7925 30.0112 44.7925 14.0473 44.7925 14.0473Z" fill="black" fill-opacity="0.3"/>
    <path d="M39.5266 35.5536C38.0349 35.5536 36.8195 33.6493 36.8195 31.3117C36.8195 28.9754 38.0349 27.0711 39.5266 27.0711C41.0203 27.0711 42.237 28.9754 42.237 31.3117C42.237 33.6493 41.0203 35.5536 39.5266 35.5536ZM39.5266 25.9648C37.4135 25.9648 35.6914 28.3658 35.6914 31.3117C35.6914 34.2575 37.4138 36.6604 39.5266 36.6604C41.6387 36.6604 43.3635 34.2575 43.3635 31.3117C43.3651 28.3672 41.6387 25.9648 39.5266 25.9648Z" fill="black" fill-opacity="0.3"/>
    <path d="M34.4004 33.5356L34.2639 32.9222C34.2477 32.8252 34.2316 32.73 34.2192 32.6365V39.0953H44.7925V32.6685C44.6592 33.3845 44.4504 34.2701 44.13 34.9666L43.8475 35.4907C43.4174 36.1796 42.9568 36.7228 42.3179 37.2378L41.83 37.5657C41.3728 37.8186 40.9573 37.9828 40.4482 38.1105C40.1327 38.1661 39.8454 38.197 39.5266 38.2075C39.0998 38.1933 38.731 38.1414 38.3152 38.0368C38.0236 37.943 37.7588 37.8382 37.482 37.7089C36.8525 37.3595 36.3732 36.9698 35.8908 36.4416L35.5287 35.9812C34.9987 35.2063 34.6565 34.4338 34.4004 33.5356ZM30.573 22.1045C30.5612 22.1996 30.5459 22.2948 30.5279 22.3923L30.3908 23.0035C30.1373 23.904 29.7938 24.6756 29.2627 25.4513L28.9004 25.9107C28.4902 26.3585 28.0855 26.7055 27.5667 27.0331C27.3028 27.1788 27.0447 27.3011 26.7625 27.4148C26.1376 27.6126 25.6105 27.6884 24.9539 27.6645L24.3478 27.5803C23.8347 27.4524 23.4189 27.2866 22.9598 27.0331C22.7074 26.8748 22.4792 26.709 22.247 26.524C21.5576 25.905 21.0808 25.253 20.6631 24.4329C20.3293 23.6658 20.1489 22.9425 20 22.1147V38.0461L30.573 25.0557V22.1045Z" fill="black" fill-opacity="0.3"/>
    <path d="M25.2661 25.0215C23.7739 25.0215 22.5552 23.118 22.5552 20.7821C22.5552 18.4458 23.7739 16.538 25.2661 16.538C26.7563 16.538 27.9706 18.4461 27.9706 20.7821C27.9706 23.118 26.7563 25.0215 25.2661 25.0215ZM25.2661 15.435C23.153 15.435 21.429 17.8354 21.429 20.7818C21.429 23.726 23.153 26.1268 25.2661 26.1268C27.3769 26.1268 29.0992 23.7258 29.0992 20.7818C29.0992 17.8357 27.3769 15.435 25.2661 15.435ZM30.5732 31.5209L24.4071 39.0959H30.5732V31.5209ZM44.4867 13H41.5153L20.3184 39.0959H23.246L44.4867 13ZM33.3084 37.2996H31.4946V39.0959H33.3084V37.2996Z" fill="black" fill-opacity="0.3"/>
    <path d="M45.7071 37.2998V39.0961C46.9465 39.0961 47.9536 40.0895 47.9536 41.3146C47.9536 42.5405 46.9465 43.5339 45.7071 43.5339C44.7946 43.5339 43.9609 43.3294 42.2286 42.9039C38.872 42.0817 34.7395 41.0668 31.4298 40.2551C25.4817 38.7972 20.0249 40.451 20.002 44.3153H21.8152C21.8152 42.8786 24.5979 41.9253 30.557 43.385C35.7112 44.6496 37.6496 45.1251 41.5314 46.0771C44.0942 46.7053 46.195 46.5539 47.7047 45.8344L47.7104 45.8401C49.2201 45.1071 50.2581 43.5721 50.2581 41.8C50.2584 39.3135 48.2194 37.2998 45.7071 37.2998ZM113.51 32.6195H108.194V35.1052H113.51V32.6195ZM136.542 30.9693H131.519V26.0597H128.701V39.0961H131.519V33.4447H136.542V39.0961H139.359V26.0597H136.542V30.9693ZM117.769 34.2651V26.0595H114.952V39.0959H117.116L123.668 30.8526V39.0959H126.485V26.0595H124.291L117.769 34.2651ZM167.371 25.774C165.534 25.7732 163.902 26.2619 162.592 27.4958C161.475 28.5314 160.501 30.2363 160.501 32.5879C160.498 34.4863 161.091 36.1285 162.591 37.5638C163.676 38.5957 165.087 39.3848 167.352 39.3816C168.751 39.3816 169.792 39.0303 170.572 38.6201L170.663 38.5715V35.1077L170.362 35.4641C169.649 36.3038 168.652 36.7921 167.524 36.7932C166.498 36.7932 165.463 36.4258 164.689 35.7246C163.915 35.022 163.395 33.9896 163.394 32.626C163.394 31.4961 163.794 30.428 164.498 29.6461C165.2 28.8642 166.201 28.3645 167.428 28.3635C167.864 28.3643 169.249 28.4527 170.363 29.7321L170.664 30.078V26.6244L170.575 26.5758C169.385 25.9313 168.284 25.774 167.371 25.774ZM104.005 31.5568C103.527 31.9159 102.97 31.9216 102.493 31.921H101.655V28.5341H102.34C102.923 28.5333 103.53 28.5769 103.989 28.901C104.315 29.1429 104.622 29.5633 104.622 30.2084C104.624 30.7139 104.413 31.234 104.005 31.5568ZM106.164 27.0728C105.68 26.6473 105.17 26.3895 104.605 26.2441C104.039 26.0974 103.421 26.0597 102.701 26.0597H98.8377V39.0961H101.655V34.3957H103.082C104.578 34.3965 105.678 33.9648 106.419 33.2225C107.443 32.1928 107.515 30.7768 107.516 30.2659C107.516 29.3217 107.241 28.031 106.165 27.0736L106.164 27.0728ZM171.474 26.0597V28.5344H174.329V39.0964H177.147V28.5344H180V26.0597H171.474ZM68.2373 39.0961H75.622V36.6215H71.0541V33.5012H75.4317V31.0265H71.0541V28.5341H75.622V26.0595H68.2373V39.0961ZM147.442 35.8103C147.335 36.042 147.165 36.254 146.892 36.4177C146.394 36.712 145.738 36.7368 145.286 36.7354H144.392V33.5775H145.134C145.666 33.5762 146.271 33.5821 146.755 33.809L146.762 33.8122L146.757 33.8098C147.122 33.9759 147.321 34.2038 147.44 34.439C147.557 34.6736 147.588 34.919 147.588 35.0999C147.588 35.3276 147.549 35.5789 147.442 35.8103ZM144.392 28.4202H144.943C145.424 28.4202 145.865 28.5261 146.172 28.7518C146.478 28.9782 146.672 29.3106 146.675 29.8477C146.675 30.2248 146.587 30.4938 146.456 30.6943C146.261 30.9945 145.957 31.1547 145.653 31.2408C145.352 31.3254 145.062 31.3313 144.924 31.3313H144.392V28.4202ZM148.178 32.071C148.346 31.9463 148.537 31.7799 148.718 31.5523C149.053 31.1324 149.341 30.5134 149.34 29.6566C149.339 28.5446 148.886 27.5058 148.093 26.8946C147.004 26.0517 145.593 26.0622 144.886 26.0595H141.574V39.0959H146.009C147.13 39.0967 148.342 38.9023 149.338 38.0258C150.264 37.1999 150.481 36.0984 150.481 35.3278C150.48 34.6381 150.326 33.5977 149.513 32.8244C149.233 32.5591 148.813 32.2481 148.178 32.071ZM152.009 39.0961H159.394V36.6215H154.826V33.5012H159.203V31.0265H154.826V28.5341H159.394V26.0595H152.009V39.0961ZM65.5363 26.0597H62.7187V36.6217H58.0381V26.0597H55.221V39.0961H64.4319V41.9506H67.0581V36.6215H65.5363V26.0597ZM85.2976 30.9693H80.2741V26.0597H77.457V39.0961H80.2741V33.4447H85.2976V39.0961H88.1147V26.0597H85.2976V30.9693ZM89.2129 28.5341H92.0682V39.0961H94.885V28.5341H97.7393V26.0595H89.2134V28.5341H89.2129ZM79.9487 16.9207H76.0353V13.0244H73.7276V23.4424H76.0353V18.9567H79.9487V23.4418H82.2573V13.0244H79.9487V16.9207ZM66.5503 19.3822L67.7442 16.3984L68.9123 19.3822H66.5503ZM66.8167 13.0244L62.3955 23.4424H64.9005L65.7913 21.3279H69.6249L70.5156 23.4424H73.0021L68.7038 13.0244H66.8167ZM88.2654 17.8536L92.6876 13.0244H89.7402L86.2916 16.9941V13.0244H83.984V23.4424H86.2916V19.0518L86.3304 19.0137L89.8415 23.4426H92.8892L88.2654 17.8536ZM59.6991 21.0112C59.472 21.2268 59.0529 21.4058 58.2923 21.4058L57.5284 21.4064V19.0629H58.3227C59.0433 19.0634 59.4534 19.2403 59.6848 19.4633C59.9157 19.6872 59.9915 19.977 59.9926 20.2648C59.9913 20.5231 59.9262 20.796 59.6991 21.0112ZM61.3524 17.8859C60.5167 17.1486 59.487 17.0268 58.7153 17.0268H57.529V15.061H61.3946V13.0247H55.2206V23.4426H58.7299C59.1768 23.4421 59.7268 23.4085 60.2727 23.2298C60.818 23.0524 61.3612 22.7245 61.77 22.1458L61.7727 22.142L61.7708 22.1447C62.1375 21.6182 62.3603 20.9648 62.3603 20.2487C62.3614 19.2521 61.9628 18.431 61.3524 17.8859Z" fill="black" fill-opacity="0.3"/>
</svg>
