<svg width="100" height="100" viewBox="0 0 100 100" fill="none" xmlns="http://www.w3.org/2000/svg">
    <path fill-rule="evenodd" clip-rule="evenodd" d="M27.8321 50.6444V50.6636C31.2244 45.594 32.9416 40.446 32.9614 34.3512C32.9614 28.2959 31.1264 23.0292 27.8321 17.9792H27.8124C24.834 22.7329 22.9409 27.7045 22.7635 33.2467C22.5646 39.4368 24.3397 45.5297 27.8321 50.6444V50.6444ZM27.8321 49.4605V49.4408C26.8858 47.5871 26.3919 45.5748 26.3919 43.5235C26.3919 41.5116 26.8863 39.4017 27.8321 37.6253V37.6061C28.74 39.48 29.2722 41.4322 29.2722 43.5235C29.2722 45.6733 28.74 47.5275 27.8321 49.4605V49.4605ZM24.0252 33.1082C24.3603 28.6108 25.7216 24.5674 27.8124 20.5042L27.8321 20.5239C30.2382 24.8636 31.501 29.1244 31.738 34.0555C31.8563 36.2256 31.6395 38.3361 31.186 40.4662C31.2841 38.2769 31.1653 36.2256 30.7715 34.0955C30.2387 31.1368 29.2131 28.4931 27.8321 25.8104L27.8124 25.7907C26.5896 28.2171 25.6625 30.6035 25.0908 33.227C24.5585 35.6726 24.4392 37.9413 24.4392 40.4662C24.0843 38.0004 23.8472 35.5932 24.0252 33.1082V33.1082Z" fill="black" fill-opacity="0.3"/>
    <path fill-rule="evenodd" clip-rule="evenodd" d="M22.6244 56.6597C23.6107 55.6937 24.5383 55.2009 25.939 55.3389C28.1869 55.5563 29.6266 56.8968 29.7454 59.1261C29.9627 63.3869 24.3209 65.971 20.7905 65.7728C15.6815 65.517 12.2891 62.2232 11.4798 57.5277C10.9869 54.6676 12.0515 51.531 14.0644 49.3619C16.0566 47.2317 18.7589 46.3835 21.5594 46.3244V33.5227C11.9924 33.5227 4.9311 40.308 4.43877 49.599C3.90649 59.9546 11.4212 66.9769 21.0079 67.3126C26.0972 67.5097 29.9036 65.5959 33.3951 62.3021V51.2752H22.6244V56.6597ZM35.946 66.9432H39.1443V53.7965H40.6177V51.2954H35.946V66.9432V66.9432ZM42.2664 51.2954L40.7531 66.9432H43.6043L43.9333 64.0743H45.1742L45.5233 66.9432H48.3741L46.8421 51.2954H42.2664ZM44.0505 61.2038L44.4764 55.5609H44.6326L45.0787 61.2038H44.0505ZM55.8784 58.8765V58.7022C56.5767 58.586 56.5575 57.2096 56.5575 56.5887V54.0881C56.5575 52.1675 56.4216 51.2954 54.1923 51.2954H51.5346C49.2856 51.2954 49.1502 52.4197 49.1502 54.0881V56.1425H52.3496V54.3791C52.3496 53.9719 52.6801 53.8546 52.8544 53.8546C53.1646 53.8546 53.3581 54.1073 53.3581 54.3791V56.2405C53.3581 57.2102 53.0479 57.4032 52.1369 57.4032H51.5351V60.1377H52.0783C53.2808 60.1377 53.3581 60.6814 53.3581 61.1654V64.0162C53.3581 64.2865 53.1646 64.5396 52.8544 64.5396C52.6801 64.5396 52.3496 64.4224 52.3496 64.0162V61.2619H49.1502V64.1319C49.1502 66.3611 49.2856 66.9432 51.5346 66.9432H54.1923C56.2462 66.9432 56.5575 66.5551 56.5575 64.1319V60.9906C56.5575 60.4282 56.6535 58.8765 55.8784 58.8765V58.8765ZM57.992 66.9432H61.1908V53.8354H62.1993V66.9432H65.3998V51.2954H57.992V66.9432ZM72.0896 51.2954H67.0677V66.9432H70.2665V61.6116H72.0896C74.338 61.6116 74.4729 60.6031 74.4729 58.8184V54.0881C74.4729 52.7112 74.338 51.2954 72.0896 51.2954V51.2954ZM71.274 58.392C71.274 58.8968 71.0219 59.1878 70.6733 59.1878H70.2671V53.7965H70.6733C71.0219 53.7965 71.274 54.0881 71.274 54.5721V58.392V58.392ZM80.8535 51.2954H78.1978C75.9675 51.2954 75.8311 52.5748 75.8311 54.0492V64.1324C75.8311 65.9544 75.9681 66.9437 78.1978 66.9437H80.8535C83.103 66.9437 83.2389 66.0706 83.2389 64.1324V54.0886C83.2384 52.5748 83.103 51.2954 80.8535 51.2954V51.2954ZM80.0395 63.9384C80.0398 64.0049 80.0269 64.0708 80.0015 64.1323C79.9761 64.1937 79.9387 64.2496 79.8915 64.2965C79.8444 64.3434 79.7884 64.3805 79.7268 64.4056C79.6652 64.4306 79.5992 64.4432 79.5327 64.4426C79.3402 64.4426 79.0289 64.3451 79.0289 63.9384V54.3397C79.0289 53.9324 79.3402 53.8349 79.5327 53.8349C79.8253 53.8349 80.0395 54.0679 80.0395 54.3397V63.9384ZM91.3424 51.2954L90.0631 58.4501L88.8994 51.2954H84.732V66.9432H87.95V59.8467H88.0668L89.1329 66.9432H91.0913L92.1969 59.8467H92.3126V66.9432H95.5114V51.2954H91.3424V51.2954Z" fill="black" fill-opacity="0.3"/>
    <path fill-rule="evenodd" clip-rule="evenodd" d="M6.27476 71.3628C6.44285 71.3628 6.61768 71.4749 6.61768 71.7073V73.7809C6.61768 74.0232 6.44285 74.1404 6.27476 74.143C6.10511 74.143 5.93443 74.0232 5.93443 73.7809V71.7073C5.93443 71.4744 6.10511 71.3628 6.27476 71.3628V71.3628ZM4.95081 71.7716V73.6076C4.95081 74.4232 5.36791 74.8802 6.27476 74.8802C7.19509 74.8802 7.60027 74.4232 7.60027 73.6076V71.7784C7.60027 71.1418 7.20754 70.6236 6.28254 70.6236C5.35598 70.6236 4.95081 71.1294 4.95081 71.7716V71.7716ZM8.85159 71.5361H8.08067V70.7154H10.477V71.5361H9.75429V74.7978H8.85159V71.5361ZM11.0056 70.7154H11.9441V72.3402L12.6299 70.7154H13.7012L12.7965 72.5172L13.7012 74.7978H12.6657L12.2134 73.3778L11.9441 73.8489V74.7978H11.0056V70.7154V70.7154ZM15.1969 72.4731V71.4479H15.3562C15.6405 71.4479 15.8376 71.5449 15.8376 71.9486C15.8439 72.3522 15.6156 72.4731 15.3738 72.4731H15.1969ZM14.2138 74.7978H15.1974V73.204H15.6405C16.2174 73.204 16.828 72.9685 16.828 71.961C16.828 70.9208 16.2075 70.7159 15.6405 70.7159H14.2138V74.7978V74.7978ZM17.4184 70.7154H18.4036V72.3055H18.8456C19.4256 72.3055 20.0336 72.5472 20.0336 73.5542C20.0336 74.5913 19.4131 74.7972 18.8456 74.7972H17.4184V70.7154ZM18.4041 73.0416V74.0642H18.5613C18.8461 74.0642 19.0479 73.9667 19.0479 73.5667C19.0515 73.1594 18.8253 73.0416 18.5789 73.0416H18.4041V73.0416ZM20.4331 74.7978H21.4157V70.7154H20.4331V74.7978ZM22.7007 71.5361H21.9282V70.7154H24.3271V71.5361H23.605V74.7978H22.7007V71.5361ZM26.1195 71.3628C26.2814 71.3628 26.4568 71.4749 26.4568 71.7073V73.7809C26.4568 74.0232 26.2814 74.1404 26.1195 74.143C25.9489 74.143 25.7761 74.0232 25.7761 73.7809V71.7073C25.7766 71.4744 25.9494 71.3628 26.1195 71.3628V71.3628ZM24.794 71.7716V73.6076C24.794 74.4232 25.2059 74.8802 26.1195 74.8802C27.0352 74.8802 27.4419 74.4232 27.4419 73.6076V71.7784C27.4419 71.1418 27.0502 70.6236 26.1221 70.6236C25.1956 70.6236 24.794 71.1294 24.794 71.7716V71.7716ZM28.1127 70.7154H30.4011V71.4863H29.0974V72.2785H30.3025V73.0505H29.0974V74.0232H30.4011V74.7978H28.1127V70.7154V70.7154ZM33.5497 73.245L33.8091 71.4484L34.0716 73.245H33.5497ZM32.3492 74.7978H33.3255L33.4526 73.9791H34.2039L34.3496 74.7978H35.3141L34.4114 70.7154H33.2373L32.3492 74.7978V74.7978ZM35.7825 70.7154H36.7174V72.3402L37.4084 70.7154H38.4766L37.5734 72.5172L38.4766 74.7978H37.4463L36.9892 73.3778L36.7174 73.8489V74.7978H35.7825V70.7154ZM40.6135 73.9791V70.7154H41.5956V73.9791H41.8109V75.6398H40.848V74.7978H38.9876V70.7154H39.9728V73.9791H40.6135V73.9791ZM44.9231 74.7978H43.9882V73.8489C43.9882 73.41 44.1174 72.7444 44.161 72.3143L43.3169 74.7978H42.3592V70.7154H43.3066V71.7343C43.3066 72.182 43.1836 72.8243 43.1556 73.2782L43.9877 70.7159H44.9226V74.7978H44.9231V74.7978ZM46.9044 71.3628C47.0693 71.3628 47.2426 71.4749 47.2426 71.7073V73.7809C47.2426 74.0232 47.0693 74.1404 46.9044 74.143C46.7316 74.143 46.5609 74.0232 46.5609 73.7809V71.7073C46.5609 71.4744 46.7316 71.3628 46.9044 71.3628V71.3628ZM45.5757 71.7716V73.6076C45.5757 74.4232 45.9934 74.8802 46.9044 74.8802C47.8231 74.8802 48.2278 74.4232 48.2278 73.6076V71.7784C48.2278 71.1418 47.832 70.6236 46.909 70.6236C45.9804 70.6236 45.5757 71.1294 45.5757 71.7716V71.7716ZM49.8817 74.7978H48.8965V70.7154H49.8817V72.2583H50.5255V70.7154H51.506V74.7978H50.5255V73.0738H49.8817V74.7978ZM52.2427 70.7154H54.5259V71.4863H53.2248V72.2785H54.4294V73.0505H53.2248V74.0232H54.5259V74.7978H52.2427V70.7154V70.7154ZM56.1113 72.4731V71.4479H56.2716C56.5565 71.4479 56.7562 71.5449 56.7562 71.9486C56.7624 72.3522 56.5321 72.4731 56.2872 72.4731H56.1113ZM55.1288 74.7978H56.1119V73.204H56.5565C57.136 73.204 57.744 72.9685 57.744 71.961C57.744 70.9208 57.1277 70.7159 56.5565 70.7159H55.1288V74.7978ZM59.3185 74.7978H58.3364V70.7154H59.3185V72.2583H59.9597V70.7154H60.9459V74.7978H59.9597V73.0738H59.3185V74.7978ZM62.9397 71.3628C63.1036 71.3628 63.281 71.4749 63.281 71.7073V73.7809C63.281 74.0232 63.1036 74.1404 62.9397 74.143C62.7695 74.143 62.6014 74.0232 62.6014 73.7809V71.7073C62.6014 71.4744 62.7695 71.3628 62.9397 71.3628V71.3628ZM61.6183 71.7716V73.6076C61.6183 74.4232 62.0276 74.8802 62.9397 74.8802C63.8616 74.8802 64.2652 74.4232 64.2652 73.6076V71.7784C64.2652 71.1418 63.874 70.6236 62.9459 70.6236C62.0178 70.6236 61.6183 71.1294 61.6183 71.7716V71.7716ZM64.936 70.7154H67.2197V71.4863H65.9206V72.2785H67.1227V73.0505H65.9206V74.0232H67.2197V74.7978H64.936V70.7154V70.7154ZM70.7174 71.3628C70.8823 71.3628 71.0567 71.4749 71.0567 71.7073V73.7809C71.0567 74.0232 70.8823 74.1404 70.7174 74.143C70.5472 74.143 70.376 74.0232 70.376 73.7809V71.7073C70.376 71.4744 70.5472 71.3628 70.7174 71.3628V71.3628ZM69.3934 71.7716V73.6076C69.3934 74.4232 69.811 74.8802 70.7179 74.8802C71.6367 74.8802 72.0413 74.4232 72.0413 73.6076V71.7784C72.0413 71.1418 71.6502 70.6236 70.7241 70.6236C69.7981 70.6236 69.3934 71.1294 69.3934 71.7716V71.7716ZM72.7147 70.7154H74.9346V71.4484H73.6963V72.3055H74.1393C74.7209 72.3055 75.3289 72.5472 75.3289 73.5542C75.3289 74.5913 74.71 74.7972 74.1393 74.7972H72.7147V70.7154ZM73.6968 73.0416V74.0642H73.855C74.1398 74.0642 74.3396 73.9667 74.3396 73.5667C74.3448 73.1594 74.1165 73.0416 73.8753 73.0416H73.6968ZM75.9655 70.7154H76.9491V73.9791H77.5965V70.7154H78.5449V73.9791H79.1955V70.7154H80.1786V73.9791H80.3819V75.6398H79.4227V74.7978H75.9655V70.7154ZM80.9567 70.7154H83.2415V71.4863H81.9393V72.2785H83.1434V73.0505H81.9393V74.0232H83.2415V74.7978H80.9567V70.7154V70.7154ZM86.3916 73.1828V73.5661C86.3916 74.4906 85.9729 74.8885 85.0604 74.8885C84.1577 74.8885 83.7302 74.4963 83.7302 73.5568V71.7779C83.7302 71.1387 84.1286 70.623 85.0604 70.623C85.9812 70.623 86.3916 71.147 86.3916 71.7836V72.1514H85.408V71.6918C85.408 71.4739 85.2051 71.3743 85.051 71.3743C84.8829 71.3743 84.7185 71.4661 84.7185 71.6741V73.7213C84.7185 74.0279 84.8461 74.1482 85.051 74.1482C85.2617 74.1482 85.408 74.0279 85.408 73.7213V73.1822H86.3916V73.1828V73.1828ZM87.6351 71.5361H86.8632V70.7154H89.2641V71.5361H88.542V74.7978H87.6351V71.5361V71.5361ZM90.7458 71.4484H91.0358C91.3154 71.4484 91.4239 71.589 91.4239 71.8313C91.4239 72.1519 91.3154 72.2967 91.0358 72.2967H90.7458V71.4484ZM90.7458 73.0271H90.9933C91.3388 73.0271 91.4472 73.2129 91.4472 73.5547C91.4472 73.9231 91.3388 74.0642 90.9699 74.0642H90.7458V73.0271V73.0271ZM91.1671 74.7978C92.0018 74.7978 92.4111 74.3557 92.4111 73.5931C92.4111 73.024 92.1974 72.762 91.8166 72.6033C92.0293 72.5592 92.3707 72.2972 92.3707 71.7369C92.3707 71.0069 91.8425 70.7154 91.3663 70.7154H89.7969V74.7978H91.1671V74.7978ZM94.2648 71.3628C94.4328 71.3628 94.6082 71.4749 94.6082 71.7073V73.7809C94.6082 74.0232 94.4328 74.1404 94.2648 74.143C94.0936 74.143 93.9224 74.0232 93.9224 73.7809V71.7073C93.9224 71.4744 94.0936 71.3628 94.2648 71.3628V71.3628ZM92.9413 71.7716V73.6076C92.9413 74.4232 93.3569 74.8802 94.2648 74.8802C95.1877 74.8802 95.5882 74.4232 95.5882 73.6076V71.7784C95.5882 71.1418 95.1991 70.6236 94.2699 70.6236C93.3439 70.6236 92.9413 71.1294 92.9413 71.7716V71.7716Z" fill="black" fill-opacity="0.3"/>
</svg>
