<svg width="196" height="26" viewBox="0 0 196 26" fill="none" xmlns="http://www.w3.org/2000/svg">
    <path fill-rule="evenodd" clip-rule="evenodd" d="M28.2196 25.1069V13.885C28.2196 9.65054 25.5362 6.80022 21.2153 6.7628C18.7096 6.59975 16.3133 7.82071 14.9617 9.94979C13.7298 7.88347 11.4729 6.66064 9.07997 6.7628C6.99854 6.66169 5.01938 7.67451 3.87465 9.42612V7.18176H0V25.1069H3.91184V15.1793C3.91184 12.067 5.62138 10.4212 8.26878 10.4212C10.9162 10.4212 12.1434 12.1044 12.1434 15.1419V25.1069H16.032V15.1793C16.032 12.067 17.8171 10.4212 20.3901 10.4212C22.9632 10.4212 24.3008 12.1044 24.3008 15.1419V25.1069H28.2196ZM86.0932 7.19757H79.771V1.76611H75.8546V7.19757H72.2402V10.7587H75.8546V18.9208C75.8546 23.0804 77.4583 25.5566 82.0373 25.5566C83.7456 25.5622 85.4192 25.0825 86.8719 24.1726L85.7562 20.8359C84.7219 21.4588 83.5481 21.8063 82.3278 21.8459C80.3986 21.8459 79.7594 20.6489 79.7594 18.8534V10.7587H86.0932V7.19757ZM119.133 6.74834C117.216 6.69198 115.414 7.69969 114.438 9.37436V7.19728H110.603V25.1075H114.485V15.0676C114.485 12.0751 115.74 10.4591 118.285 10.4591C119.11 10.447 119.935 10.5995 120.702 10.908L121.888 7.23471C121.004 6.91604 120.075 6.75159 119.133 6.74834ZM69.1844 8.61836C66.9937 7.30721 64.4718 6.65802 61.922 6.74797C57.4151 6.74797 54.4853 8.92505 54.4853 12.4787C54.4853 15.4039 56.6423 17.1994 60.6274 17.7605L62.4496 18.0223C64.5683 18.3216 65.5805 18.8827 65.5805 19.8926C65.5805 21.2766 64.1673 22.0697 61.5199 22.0697C59.3839 22.1379 57.2885 21.479 55.5708 20.1994L53.809 23.2293C56.0647 24.8163 58.7679 25.6319 61.5199 25.5559C66.6578 25.5559 69.6376 23.117 69.6376 19.7131C69.6376 16.5635 67.29 14.9176 63.4235 14.3565L61.6013 14.0946C59.9289 13.8702 58.5831 13.5335 58.5831 12.3366C58.5831 11.0273 59.8464 10.2418 61.9731 10.2418C63.9221 10.2707 65.8315 10.7986 67.5225 11.7755L69.1844 8.61836ZM172.931 6.74834C171.013 6.69198 169.212 7.69969 168.247 9.37436V7.19728H164.412V25.1075H168.282V15.0676C168.282 12.0751 169.549 10.4591 172.082 10.4591C172.907 10.447 173.732 10.5995 174.499 10.908L175.696 7.23471C174.813 6.91604 173.872 6.75159 172.931 6.74834ZM123.051 16.1525C123.051 21.584 126.805 25.5565 132.546 25.5565C134.87 25.6722 137.148 24.909 138.949 23.4168L137.09 20.2673C135.742 21.2933 134.115 21.8574 132.429 21.8757C129.338 21.8757 127.072 19.5865 127.072 16.1451C127.072 12.7037 129.35 10.4517 132.429 10.4143C134.115 10.4327 135.742 10.9968 137.09 12.0229L138.949 8.87318C137.148 7.38108 134.87 6.61789 132.546 6.73364C126.805 6.73364 123.051 10.7061 123.051 16.1376V16.1525ZM159.321 16.1524V7.17497H155.451V9.35194C154.103 7.61195 152.011 6.63317 149.826 6.72603C144.829 6.72603 140.901 10.6612 140.901 16.13C140.901 21.5989 144.817 25.534 149.826 25.534C152.011 25.6269 154.103 24.6481 155.451 22.9081V25.0776H159.321V16.1524ZM144.909 16.1523C144.909 13.0027 146.955 10.4216 150.302 10.4216C153.509 10.4216 155.671 12.898 155.671 16.1523C155.671 19.4067 153.509 21.883 150.302 21.883C146.955 21.883 144.909 19.2944 144.909 16.1523ZM98.1677 6.74792C92.9612 6.74792 89.3004 10.5708 89.3004 16.1519C89.3004 21.8452 93.1007 25.5559 98.4234 25.5559C101.085 25.6497 103.688 24.7547 105.722 23.0422L103.827 20.1544C102.351 21.3449 100.515 22.0033 98.621 22.0248C96.1223 22.0248 93.8561 20.8652 93.2983 17.6407H106.524C106.559 17.1544 106.593 16.6681 106.593 16.1445C106.593 10.5634 103.13 6.74048 98.1445 6.74048L98.1677 6.74792ZM98.0863 10.2349C100.585 10.2349 102.189 11.8059 102.595 14.5815H93.3679C93.7747 11.9929 95.3436 10.2349 98.0979 10.2349H98.0863ZM195.244 16.1521V0H191.374V9.36656C190.026 7.62657 187.934 6.6478 185.749 6.74066C180.763 6.74066 176.823 10.6759 176.823 16.1446C176.823 21.6134 180.74 25.5486 185.749 25.5486C187.934 25.6415 190.026 24.6627 191.374 22.9227V25.0922H195.244V16.1521ZM180.843 16.1523C180.843 13.0027 182.889 10.4216 186.247 10.4216C189.455 10.4216 191.605 12.898 191.605 16.1523C191.605 19.4067 189.455 21.883 186.247 21.883C182.889 21.883 180.843 19.2944 180.843 16.1523ZM50.0455 16.1525V7.17504H46.172V9.352C44.8308 7.62701 42.7459 6.65776 40.5715 6.74853C35.5824 6.74853 31.6484 10.6837 31.6484 16.1525C31.6484 21.6214 35.5603 25.5565 40.5715 25.5565C42.7587 25.6494 44.8529 24.6706 46.1941 22.9306V25.1002H50.0675L50.0455 16.1525ZM35.6344 16.1523C35.6344 13.0027 37.6786 10.4216 41.0326 10.4216C44.2379 10.4216 46.3937 12.898 46.3937 16.1523C46.3937 19.4067 44.2379 21.883 41.0326 21.883C37.6786 21.883 35.6344 19.3019 35.6344 16.1523Z" fill="black" fill-opacity="0.3"/>
</svg>
