<svg width="86" height="32" viewBox="0 0 86 32" fill="none" xmlns="http://www.w3.org/2000/svg">
    <path fill-rule="evenodd" clip-rule="evenodd" d="M10.197 31.852C7.66925 31.7479 5.60061 31.0299 3.98404 29.6967C3.67606 29.4421 2.93925 28.6784 2.69288 28.3564C2.03742 27.5006 1.58998 26.6678 1.29363 25.7437C0.377848 22.8994 0.849686 19.1669 2.64174 15.0708C4.17463 11.5638 6.54079 8.08561 10.67 3.26838C11.2766 2.55952 13.0873 0.48645 13.1012 0.48645C13.1035 0.48645 13.0059 0.663889 12.8816 0.879947C11.8089 2.74594 10.8896 4.94389 10.3887 6.84671C9.5845 9.89996 9.68212 12.5202 10.6734 14.5519C11.3568 15.9517 12.5283 17.1641 13.8461 17.8342C16.153 19.0071 19.5303 19.1041 23.6536 18.1181C23.9372 18.0499 38.0075 14.1737 54.9204 9.50413C71.8346 4.83428 85.6747 1.01651 85.6759 1.01965C85.6806 1.02369 46.3832 18.4752 25.9814 27.5289C22.7506 28.9623 21.8883 29.3243 20.3694 29.8778C16.4866 31.2927 13.0082 31.968 10.197 31.852Z" fill="black" fill-opacity="0.3"/>
</svg>
