<svg width="100" height="100" viewBox="0 0 100 100" fill="none" xmlns="http://www.w3.org/2000/svg">
    <path fill-rule="evenodd" clip-rule="evenodd" d="M38.1186 61.5504V60.6648H35.8671V61.5504H35.604V59.6511H35.8671V60.4744H38.1186V59.6511H38.3785V61.5504H38.1186ZM39.2641 61.5504V59.6511H41.5068V59.8404H39.523V60.4744H41.4544V60.6622H39.523V61.3594H41.5068V61.5504H39.2641ZM46.0582 60.7125V60.4759C46.0582 60.0246 45.8341 59.7974 45.1238 59.7974H44.3508V59.6293H44.0873V59.7974H43.3236C42.6087 59.7974 42.3846 59.9872 42.3846 60.4759V60.7125C42.3846 61.1955 42.6383 61.3631 43.3236 61.3631H44.0873V61.5498H44.3508V61.3631H45.1238C45.8055 61.3631 46.0582 61.2043 46.0582 60.7125ZM45.7936 60.7125C45.7936 61.0783 45.6167 61.1753 45.1238 61.1753H44.3508V59.9878H45.1238C45.5923 59.9878 45.7936 60.0972 45.7936 60.4661V60.7125ZM44.0873 61.1753H43.3236C42.8298 61.1753 42.6414 61.0783 42.6414 60.7104V60.4578C42.6414 60.0941 42.8479 59.9878 43.3236 59.9878H44.0873V61.1753ZM49.5621 59.8404V59.6511H46.8327V59.8404H48.0618V61.5504H48.3237V59.8404H49.5621ZM52.8678 61.5504V59.6516H51.1605C50.5302 59.6516 50.2708 59.8077 50.2708 60.2394C50.2708 60.5963 50.5302 60.7633 51.0272 60.7633L50.166 61.5509H50.5302L51.3405 60.7633H52.6032V61.5509L52.8678 61.5504ZM52.6032 60.575H51.0775C50.6723 60.575 50.5302 60.5221 50.5302 60.2394C50.5302 59.9447 50.678 59.8404 51.0521 59.8404H52.6032V60.575ZM56.3354 61.5504V60.6648H54.0849V61.5504H53.8224V59.6511H54.0849V60.4744H56.3354V59.6511H56.5979V61.5504H56.3354ZM60.3203 61.5504L59.0082 59.6516H58.6051L57.2931 61.5504H57.5831L57.9094 61.0736H59.691L60.0131 61.5504H60.3203ZM59.5535 60.8796H58.0511L58.8007 59.788L59.5535 60.8796ZM63.3137 61.5504V60.7628H62.052L61.2375 61.5504H60.8769L61.7329 60.7628C61.2375 60.7628 60.9802 60.5958 60.9802 60.2388C60.9802 59.8072 61.2375 59.6511 61.8678 59.6511H63.5772V61.5498L63.3137 61.5504ZM63.3137 59.8404H61.7625C61.3916 59.8404 61.2375 59.9442 61.2375 60.2394C61.2375 60.5226 61.3801 60.575 61.7879 60.575H63.3137V59.8404ZM68.899 61.5504L67.0666 60.5553L68.8575 59.6511H68.3942L66.7942 60.4661H66.3688V59.6511H66.1063V61.5504H66.3688V60.657H66.8046L68.4388 61.5504H68.899ZM72.3085 60.8988C72.3085 61.2707 72.185 61.36 71.6517 61.36H70.5441C70.0497 61.36 69.866 61.2645 69.866 60.8988V60.2928C69.866 59.9234 70.0678 59.8233 70.5441 59.8233H71.6517C72.1575 59.8233 72.3085 59.9172 72.3085 60.2928V60.8988ZM72.5689 60.8988V60.3047C72.5689 59.7527 72.267 59.6293 71.6517 59.6293H70.5461C69.8266 59.6293 69.603 59.8228 69.603 60.3047V60.8988C69.603 61.3869 69.8582 61.5504 70.5461 61.5504H71.6517C72.3256 61.5504 72.5689 61.4393 72.5689 60.8988ZM76.8541 61.5504V59.8051H76.7088L75.3413 61.5504H75.2064L73.8405 59.8051H73.6926V61.5504H73.4322V59.6511H73.9925L75.2765 61.2707L76.5532 59.6511H77.1171V61.5504H76.8541ZM80.8312 61.5504V59.6511H78.0556V61.5504H78.3223V59.8404H80.5666V61.5504H80.8312ZM84.2479 61.5504L83.9257 61.0736H82.1442L81.8138 61.5504H81.5237L82.8389 59.6516H83.2373L84.5493 61.5504H84.2479ZM83.0371 59.7875L82.2833 60.879H83.7877L83.0371 59.7875ZM88.0756 61.5504V59.6511H87.8146V60.4744H85.5672V59.6511H85.3016V61.5504H85.5672V60.6648H87.8146V61.5504H88.0756ZM91.7517 61.5504V59.6511H91.2402L89.2382 61.402H89.2148V59.6511H88.9554V61.5504H89.3819L91.3901 59.7979H91.4866V61.5504H91.7517ZM94.9205 60.575H93.3916C92.9844 60.575 92.8474 60.5221 92.8474 60.2394C92.8474 59.9447 92.9911 59.8404 93.3631 59.8404H94.9205V60.575ZM95.1788 61.5504V59.6516H93.4736C92.8474 59.6516 92.5838 59.8077 92.5838 60.2394C92.5838 60.5963 92.8474 60.7633 93.3428 60.7633L92.4775 61.5509H92.8474L93.6541 60.7633H94.9205V61.5509L95.1788 61.5504ZM35.5812 64.3632C35.5812 64.3632 41.2858 64.2859 41.7429 64.5925C42.1999 64.894 42.6554 65.2021 42.7317 65.8075C42.8074 66.4166 42.4277 68.3154 40.9818 68.3927C39.538 68.4684 37.867 68.3154 37.867 68.3154L37.7923 69.837L35.5101 69.7612L35.5812 64.3632ZM37.9407 65.8828L37.8671 66.7964C37.8671 66.7964 39.6901 67.1756 40.0699 66.7964C40.4501 66.4172 40.1451 65.8081 39.5386 65.8081C38.9316 65.8081 37.9407 65.8828 37.9407 65.8828Z" fill="black" fill-opacity="0.3"/>
    <path fill-rule="evenodd" clip-rule="evenodd" d="M42.7323 65.808C43.3434 65.1248 44.4069 64.0597 46.8354 64.2102C49.2695 64.3637 50.565 65.3489 50.565 66.496C50.565 67.6326 50.6371 69.1532 49.1927 69.6066C47.75 70.0658 46.3031 70.0658 45.3158 69.9164C44.327 69.7618 42.7322 68.8476 42.505 67.6332C42.2762 66.4166 42.7323 65.808 42.7323 65.808V65.808ZM45.0145 67.2514C44.8754 66.2693 45.6961 65.6545 46.3804 65.6545C47.0637 65.6545 48.2014 65.7313 48.1262 67.0252C48.052 68.3159 47.9788 68.2397 47.2951 68.469C46.6103 68.6967 45.2412 68.9276 45.0145 67.2514Z" fill="black" fill-opacity="0.3"/>
    <path fill-rule="evenodd" clip-rule="evenodd" d="M58.6944 66.496C58.3162 65.8081 57.4825 64.5132 56.1866 64.4401C54.8948 64.3638 53.146 64.2102 52.3107 64.5132C51.4718 64.8203 50.7938 65.5778 50.6397 66.262C50.4887 66.9484 50.3315 68.469 51.3224 69.1533C52.3102 69.837 53.9101 70.3709 55.4281 70.0658C56.9461 69.7618 58.392 69.1533 58.6197 67.8604H56.0367C56.0367 67.8604 55.3498 68.774 54.5156 68.6967C54.5156 68.6967 53.7504 68.9276 53.2207 68.1681C52.6915 67.4039 52.7657 66.7207 53.2964 66.0353C53.8334 65.349 55.274 65.5772 55.4271 65.8828C55.5781 66.1873 55.8058 66.6428 55.8058 66.6428L58.6944 66.496Z" fill="black" fill-opacity="0.3"/>
    <path fill-rule="evenodd" clip-rule="evenodd" d="M58.4682 64.5132H60.8261V66.3404H63.1788V64.3633H65.6151V69.837H63.3319V68.013H60.9024V69.837H58.3925L58.4682 64.5132V64.5132ZM66.3766 64.3633L73.1432 64.4401V65.8081H69.0386V66.3404H72.4605V67.8604H68.8845V68.5473H73.2942V69.9901H66.4519L66.3766 64.3633V64.3633Z" fill="black" fill-opacity="0.3"/>
    <path fill-rule="evenodd" clip-rule="evenodd" d="M76.6383 64.3633H78.9962C78.9962 64.3633 78.8452 64.7446 79.1534 64.6694C79.4522 64.5931 81.5051 64.5127 82.1152 65.2769C82.7222 66.0353 82.952 67.0247 82.3414 67.709C81.7302 68.3932 81.1995 68.6967 80.8234 68.6967C80.4395 68.6967 79.1534 68.7735 79.1534 68.7735V69.9901H76.6383V68.6967C76.6383 68.6967 75.0415 68.621 74.5092 68.469C73.9795 68.3159 72.9891 67.709 72.9891 66.7212C72.9891 65.7318 73.5209 64.8945 74.284 64.8203C75.041 64.7451 76.4868 64.7451 76.4868 64.7451L76.6383 64.3633V64.3633ZM76.6384 66.0353L76.5631 67.1756C76.5631 67.1756 75.3481 67.3281 75.3481 66.8747C75.3481 66.4166 75.5764 65.9601 76.6384 66.0353V66.0353ZM79.153 66.111L79.2251 67.1761C79.2251 67.1761 79.9088 67.4811 80.2922 66.9489C80.6678 66.4166 79.983 66.0353 79.153 66.111V66.111Z" fill="black" fill-opacity="0.3"/>
    <path fill-rule="evenodd" clip-rule="evenodd" d="M83.9367 66.0353V70.0657H86.3688V66.0353H88.5726L89.0328 65.4288L88.349 64.593H81.9632C81.9643 64.593 81.6571 65.808 82.3414 65.8827C83.0236 65.96 83.9367 66.0353 83.9367 66.0353V66.0353Z" fill="black" fill-opacity="0.3"/>
    <path fill-rule="evenodd" clip-rule="evenodd" d="M91.0063 64.593V66.111C91.0063 66.111 93.898 65.96 94.4313 66.262C94.9631 66.567 95.4943 67.0251 95.5701 67.5538C95.6453 68.0891 95.4943 68.9275 94.9631 69.3809C94.4313 69.8369 93.8243 70.141 93.2111 70.141H88.8055V64.6693L91.0063 64.593V64.593ZM91.2382 67.7089V68.621H92.7561C93.1354 68.621 93.6692 67.7852 92.9839 67.6332C92.3012 67.4807 91.2382 67.7089 91.2382 67.7089V67.7089Z" fill="black" fill-opacity="0.3"/>
    <path fill-rule="evenodd" clip-rule="evenodd" d="M4.4118 39.274H8.2908V52.4279L4.4118 49.0049V39.274ZM9.05187 34.9411H12.7768V56.6862L9.05187 53.1086V34.9411ZM13.5384 30.6086H17.3401V51.2103H13.5384V30.6086ZM18.0975 26.2747H22.0507V46.9536H18.0975V26.2747ZM22.5835 30.3778H26.3862V51.2103H22.5835V30.3778ZM27.2988 34.8617H31.0237V53.0334L27.2988 56.6862V34.8617ZM31.7059 39.1977H35.5107V48.702L31.7059 52.4279V39.1977V39.1977Z" fill="black" fill-opacity="0.3"/>
    <path fill-rule="evenodd" clip-rule="evenodd" d="M13.5383 51.67H17.34V70.7465H13.5383V51.67ZM18.0975 47.5648H21.8213V70.7465H18.0975V47.5648ZM22.5834 51.7426H26.3862V70.7465H22.5834V51.7426Z" fill="black" fill-opacity="0.3"/>
</svg>
