<svg width="113" height="24" viewBox="0 0 113 24" fill="none" xmlns="http://www.w3.org/2000/svg">
    <path fill-rule="evenodd" clip-rule="evenodd" d="M80.9431 3.45756C80.8269 3.71354 80.663 3.82952 80.3144 3.82952H67.3191V9.52214H78.1667C78.3538 9.52214 78.4236 9.61477 78.3538 9.80083L77.1638 12.7287C77.0464 12.9843 76.8848 13.0999 76.5339 13.0999H70.1629C68.0884 13.0999 67.3191 13.7273 67.3191 15.1216V19.1412H81.9937C82.1797 19.1412 82.2494 19.2342 82.1797 19.42L80.9431 22.4643C80.8269 22.7194 80.663 22.8358 80.3144 22.8358H64.2847C63.0481 22.8358 62.5821 22.4176 62.5821 21.488V1.71495C62.5821 0.62299 63.1888 0.13501 64.7984 0.13501H81.9937C82.1797 0.13501 82.2494 0.228285 82.1797 0.413685L80.9431 3.45756ZM18.4203 13.4257V0.692999C18.4203 0.321421 18.6086 0.135254 18.9816 0.135254H23.2503V13.6347C23.2503 20.7452 18.7016 23.2313 12.0982 23.2313C5.49591 23.2313 0.946045 20.7452 0.946045 13.6347V0.692999C0.946045 0.321421 1.13199 0.135254 1.50621 0.135254H5.77599V13.4257C5.77599 17.6777 7.66567 19.4433 12.0982 19.4433C16.5318 19.4433 18.4203 17.6777 18.4203 13.4257ZM45.5675 19.1879H37.1418V15.0287C37.1418 13.6344 37.9123 13.0073 39.9902 13.0073H45.5675C48.2497 13.0073 48.997 14.0294 48.997 16.121C48.997 18.2121 48.2497 19.1879 45.5675 19.1879ZM37.1418 3.78271H44.6807C47.2015 3.78271 47.9011 4.7279 47.9011 6.68696C47.9011 8.64648 47.2015 9.59178 44.6807 9.59178H37.1418V3.78271ZM50.0472 10.8697C51.9124 9.8938 52.6818 8.05828 52.6818 5.89747C52.6818 0.878526 48.577 0.13501 44.3305 0.13501H34.6241C33.0145 0.13501 32.409 0.62299 32.409 1.71495V21.488C32.409 22.4176 32.8739 22.8358 34.1116 22.8358H46.0575C50.5597 22.8358 53.78 21.0932 53.78 16.5623C53.78 13.8439 52.6132 11.5434 50.0472 10.8697ZM95.1424 10.6603H103.074C106.038 10.6603 106.692 9.5452 106.692 7.22181C106.692 4.92142 106.038 3.7832 103.074 3.7832H95.1424V10.6603ZM106.879 13.7043L111.988 22.4407C112.082 22.5798 112.082 22.8358 111.779 22.8358H107.44C107.09 22.8358 106.949 22.6963 106.809 22.4643L102.19 14.1922H97.9901C95.9133 14.1922 95.144 14.8197 95.144 16.214V22.8358H90.9683C90.5941 22.8358 90.4082 22.6497 90.4082 22.2782V1.71495C90.4082 0.62299 91.0137 0.13501 92.6244 0.13501H102.377C108.046 0.13501 111.475 1.62244 111.475 7.1289C111.475 11.3811 109.423 13.054 106.879 13.7043Z" fill="black" fill-opacity="0.3"/>
</svg>
