<svg width="100" height="29" viewBox="0 0 100 29" fill="none" xmlns="http://www.w3.org/2000/svg">
    <g clip-path="url(#clip0_2362_457)">
        <path d="M95.5984 25.2171C97.5655 25.2171 98.9588 24.8619 99.997 24.0969V20.6272C98.9315 21.3648 97.6474 21.8293 95.8443 21.8293C92.8116 21.8293 91.5549 19.4797 91.5549 15.7641C91.5549 11.8572 93.0849 9.86279 95.8716 9.86279C97.5108 9.86279 99.1227 10.4365 99.9697 10.9829V7.37661C99.0681 6.88483 97.5108 6.52966 95.3798 6.52966C89.943 6.52966 87.1289 10.4365 87.1289 15.9007C87.1563 21.8839 89.9156 25.2171 95.5984 25.2171V25.2171ZM69.0153 23.6325V20.1627C67.7039 21.0643 65.4636 21.8566 63.4145 21.8566C60.3 21.8566 59.1252 20.3813 58.9339 17.376H69.2065V15.1357C69.2065 8.87925 66.4471 6.52966 62.2124 6.52966C57.0215 6.52966 54.5626 10.4912 54.5626 15.928C54.5626 22.1845 57.6498 25.2171 63.0593 25.2171C65.7641 25.2171 67.7585 24.4794 69.0153 23.6325V23.6325ZM30.0286 6.85751V13.9609H24.3458V6.85751H20.0838V24.8619H24.3458V17.3487H30.0286V24.8619H34.2906V6.85751H30.0286ZM53.4971 21.4741H51.612V6.85751H39.2083V8.38747C39.2083 12.7861 38.9351 18.4688 37.4325 21.4741H36.0664V28.96H40.0006V24.8619H49.5356V28.96H53.4698V21.4741H53.4971ZM82.5937 24.8619H87.4295L80.5993 15.163L86.6098 6.85751H82.3205L76.3099 15.163V6.85751H72.0479V24.8619H76.3099V16.01L82.5937 24.8619ZM62.1031 9.86279C64.2068 9.86279 64.8625 11.6113 64.8625 13.8789V14.2341H58.9339C59.0432 11.3654 60.0814 9.86279 62.1031 9.86279V9.86279ZM47.3499 21.4741H41.3393C42.5141 18.7694 42.842 13.8516 42.842 10.7371V10.1906H47.3499V21.4741Z" fill="black" fill-opacity="0.3"/>
        <path d="M16.532 24.8619H12.188V3.36045H10.2483C6.69658 3.36045 4.83876 5.1363 4.83876 7.78642C4.83876 10.7917 6.12284 12.1851 8.77295 13.9609L10.9586 15.4362L4.67484 24.8619H0.00299072L5.65839 16.4471C2.40722 14.1248 0.576727 11.8572 0.576727 8.0323C0.576727 3.25117 3.90986 0 10.221 0H16.5047V24.8619H16.532Z" fill="black" fill-opacity="0.3"/>
    </g>
    <defs>
        <clipPath id="clip0_2362_457">
            <rect width="100" height="28.96" fill="white"/>
        </clipPath>
    </defs>
</svg>
