<svg width="50" height="50" viewBox="0 0 50 50" fill="none" xmlns="http://www.w3.org/2000/svg">
    <path fill-rule="evenodd" clip-rule="evenodd" d="M25 50C38.8071 50 50 38.8071 50 25C50 11.1929 38.8071 0 25 0C11.1929 0 0 11.1929 0 25C0 38.8071 11.1929 50 25 50ZM20.4167 36.4584C21.0247 36.4584 21.3026 36.1879 21.6384 35.8609L21.6667 35.8334L24.6695 32.9135L30.9167 37.5289C32.0664 38.1633 32.8962 37.8349 33.1825 36.4615L37.2836 17.1359C37.7035 15.4525 36.6419 14.689 35.542 15.1884L11.4608 24.474C9.81702 25.1333 9.8266 26.0504 11.1612 26.459L17.341 28.3878L31.6478 19.3618C32.3232 18.9522 32.9431 19.1724 32.4343 19.6239L20.8422 30.0849L20.8421 30.0848L20.8421 30.0851L20.8417 30.0854L20.842 30.0856L20.4167 36.4584Z" fill="black" fill-opacity="0.5"/>
</svg>
