<svg width="50" height="50" viewBox="0 0 50 50" fill="none" xmlns="http://www.w3.org/2000/svg">
    <path fill-rule="evenodd" clip-rule="evenodd" d="M25 0C11.1929 0 0 11.1929 0 25C0 38.8071 11.1929 50 25 50C38.8071 50 50 38.8071 50 25C50 11.1929 38.8071 0 25 0ZM27.0356 32.8919C26.789 33.1518 26.3078 33.2043 26.3078 33.2043H24.714C24.714 33.2043 21.1977 33.4117 18.1 30.2468C14.722 26.794 11.7391 19.9433 11.7391 19.9433C11.7391 19.9433 11.5669 19.4939 11.7535 19.2775C11.9634 19.033 12.536 19.0176 12.536 19.0176L16.3458 18.9933C16.3458 18.9933 16.7045 19.0509 16.9614 19.2366C17.174 19.3902 17.2927 19.6757 17.2927 19.6757C17.2927 19.6757 17.9083 21.2043 18.7235 22.587C20.316 25.2871 21.0568 25.8773 21.5968 25.588C22.3845 25.1667 22.1485 21.7715 22.1485 21.7715C22.1485 21.7715 22.1628 20.5399 21.752 19.9906C21.4337 19.5656 20.8338 19.4414 20.569 19.4068C20.3538 19.3787 20.7059 18.8896 21.1624 18.6707C21.8485 18.3417 23.0588 18.3225 24.4896 18.3365C25.6048 18.3481 25.9256 18.4159 26.3612 18.5196C27.3723 18.7591 27.3407 19.5266 27.2726 21.183C27.2522 21.6784 27.2286 22.2533 27.2286 22.9173C27.2286 23.0665 27.2242 23.2256 27.2196 23.3892C27.196 24.2379 27.1689 25.2096 27.7386 25.5713C28.0307 25.7557 28.7441 25.5982 30.5297 22.6229C31.3762 21.212 32.01 19.5541 32.01 19.5541C32.01 19.5541 32.1496 19.2583 32.3648 19.1316C32.5852 19.0023 32.8826 19.042 32.8826 19.042L36.8919 19.0176C36.8919 19.0176 38.097 18.8755 38.2914 19.4107C38.4962 19.9702 37.8414 21.2786 36.2033 23.4217C34.6493 25.4553 33.8931 26.204 33.9625 26.8661C34.0132 27.35 34.5048 27.7876 35.4481 28.6465C37.4172 30.4411 37.9451 31.3853 38.0719 31.6121C38.0824 31.631 38.0902 31.6448 38.0957 31.6539C38.9787 33.0916 37.1162 33.2043 37.1162 33.2043L33.5543 33.2529C33.5543 33.2529 32.79 33.4014 31.7831 32.7229C31.2556 32.3677 30.7402 31.7877 30.2493 31.2352C29.4996 30.3915 28.807 29.6121 28.2159 29.7962C27.2234 30.106 27.2534 32.2044 27.2534 32.2044C27.2534 32.2044 27.2612 32.6537 27.0356 32.8919Z" fill="white" fill-opacity="0.5"/>
</svg>
