<svg width="50" height="50" viewBox="0 0 50 50" fill="none" xmlns="http://www.w3.org/2000/svg">
    <path fill-rule="evenodd" clip-rule="evenodd" d="M25 0C11.1929 0 0 11.1929 0 25C0 38.8071 11.1929 50 25 50C38.8071 50 50 38.8071 50 25C50 11.1929 38.8071 0 25 0ZM35.4183 16.4056C36.5658 16.7204 37.4694 17.6481 37.7761 18.8263C38.3333 20.9615 38.3333 25.4167 38.3333 25.4167C38.3333 25.4167 38.3333 29.8717 37.7761 32.0071C37.4694 33.1852 36.5658 34.1129 35.4183 34.4279C33.3389 35 25 35 25 35C25 35 16.6611 35 14.5815 34.4279C13.4341 34.1129 12.5305 33.1852 12.2238 32.0071C11.6667 29.8717 11.6667 25.4167 11.6667 25.4167C11.6667 25.4167 11.6667 20.9615 12.2238 18.8263C12.5305 17.6481 13.4341 16.7204 14.5815 16.4056C16.6611 15.8333 25 15.8333 25 15.8333C25 15.8333 33.3389 15.8333 35.4183 16.4056Z" fill="black" fill-opacity="0.5"/>
    <path fill-rule="evenodd" clip-rule="evenodd" d="M22.5 30V21.6666L29.1667 25.8335L22.5 30Z" fill="black" fill-opacity="0.5"/>
</svg>
